HIERARCHY
ROOT root
{
	OFFSET 0.000000 0.000000 0.000000
	CHANNELS 6 Xposition Yposition Zposition Zrotation Yrotation Xrotation
	JOINT lhip
	{
		OFFSET 0.058581 -0.082280 -0.017664
		CHANNELS 3 Zrotation Yrotation Xrotation
		JOINT lknee
		{
			OFFSET 0.043451 -0.386469 0.008037
			CHANNELS 3 Zrotation Yrotation Xrotation
			JOINT lankle
			{
				OFFSET -0.014790 -0.426874 -0.037428
				CHANNELS 3 Zrotation Yrotation Xrotation
				JOINT ltoe
				{
					OFFSET 0.041054 -0.060286 0.122042
					CHANNELS 3 Zrotation Yrotation Xrotation
					End Site
					{
						OFFSET 0.000000 0.000000 0.000000
					}
				}
			}
		}
	}
	JOINT rhip
	{
		OFFSET -0.060310 -0.090513 -0.013543
		CHANNELS 3 Zrotation Yrotation Xrotation
		JOINT rknee
		{
			OFFSET -0.043257 -0.383688 -0.004843
			CHANNELS 3 Zrotation Yrotation Xrotation
			JOINT rankle
			{
				OFFSET 0.019056 -0.420046 -0.034562
				CHANNELS 3 Zrotation Yrotation Xrotation
				JOINT rtoe
				{
					OFFSET -0.034840 -0.062106 0.130323
					CHANNELS 3 Zrotation Yrotation Xrotation
					End Site
					{
						OFFSET 0.000000 0.000000 0.000000
					}
				}
			}
		}
	}
	JOINT lowerback
	{
		OFFSET 0.004439 0.124404 -0.038385
		CHANNELS 3 Zrotation Yrotation Xrotation
		JOINT upperback
		{
			OFFSET 0.004488 0.137956 0.026820
			CHANNELS 3 Zrotation Yrotation Xrotation
			JOINT chest
			{
				OFFSET -0.002265 0.056032 0.002855
				CHANNELS 3 Zrotation Yrotation Xrotation
				JOINT lowerneck
				{
					OFFSET -0.013390 0.211636 -0.033468
					CHANNELS 3 Zrotation Yrotation Xrotation
					JOINT upperneck
					{
						OFFSET 0.010113 0.088937 0.050410
						CHANNELS 3 Zrotation Yrotation Xrotation
						End Site
						{
							OFFSET 0.000000 0.000000 0.000000
						}
					}
				}
				JOINT lclavicle
				{
					OFFSET 0.071702 0.114000 -0.018898
					CHANNELS 3 Zrotation Yrotation Xrotation
					JOINT lshoulder
					{
						OFFSET 0.122921 0.045205 -0.019046
						CHANNELS 3 Zrotation Yrotation Xrotation
						JOINT lelbow
						{
							OFFSET 0.255332 -0.015649 -0.022946
							CHANNELS 3 Zrotation Yrotation Xrotation
							JOINT lwrist
							{
								OFFSET 0.265709 0.012698 -0.007375
								CHANNELS 3 Zrotation Yrotation Xrotation
								End Site
								{
									OFFSET 0.000000 0.000000 0.000000
								}
							}
						}
					}
				}
				JOINT rclavicle
				{
					OFFSET -0.082954 0.112472 -0.023707
					CHANNELS 3 Zrotation Yrotation Xrotation
					JOINT rshoulder
					{
						OFFSET -0.113228 0.046853 -0.008472
						CHANNELS 3 Zrotation Yrotation Xrotation
						JOINT relbow
						{
							OFFSET -0.260127 -0.014369 -0.031269
							CHANNELS 3 Zrotation Yrotation Xrotation
							JOINT rwrist
							{
								OFFSET -0.269108 0.006794 -0.006027
								CHANNELS 3 Zrotation Yrotation Xrotation
								End Site
								{
									OFFSET 0.000000 0.000000 0.000000
								}
							}
						}
					}
				}
			}
		}
	}
}
MOTION
Frames: 8
Frame Time: 0.033333
-0.459745 3.049665 0.987582 4.224934 -0.497428 78.643611 4.696734 1.270069 -0.548742 -7.688935 -0.739807 28.910276 1.572014 8.026900 -17.109167 0.000000 -0.000000 0.000000 -3.096460 -5.361001 2.379659 2.468739 -6.533502 20.172261 -0.195603 -9.629927 -12.200662 0.000000 -0.000000 0.000000 2.938354 1.543141 10.323675 0.230475 -2.044731 13.552739 -2.380993 0.118067 0.919780 -0.769624 0.702130 22.688300 -3.767079 3.709950 25.883771 -35.452016 -4.037861 10.430331 -53.578651 -5.063469 6.977125 15.744327 -31.964133 1.256058 5.745222 -3.033751 -0.269054 31.534489 12.186413 13.012780 51.949720 12.059080 8.741886 -15.429817 25.451460 -6.256724 0.218748 6.943585 -3.181641 
-0.456835 3.047339 0.986886 3.664540 -0.359031 78.971034 4.472885 1.788146 0.465006 -7.165057 -0.473685 26.773175 2.161674 8.224624 -17.436096 0.000000 -0.000000 0.000000 -2.952097 -4.873262 2.075476 2.350802 -6.370864 20.099835 0.046058 -9.778817 -12.224296 0.000000 -0.000000 0.000000 2.812842 1.351019 9.428878 0.423476 -2.104424 13.583105 -2.391090 -0.045738 0.922770 -0.427703 1.290691 22.817874 -4.083148 4.234708 25.634497 -35.319599 -3.576002 10.473073 -54.309717 -4.638638 7.376454 16.196435 -31.502789 0.926251 5.799563 -2.803327 -0.701934 31.605662 11.594449 12.857500 51.998918 12.209938 9.510107 -15.726321 26.823794 -6.026370 0.103957 7.027063 -3.629361 
-0.453817 3.045186 0.986278 3.230311 -0.245251 79.289795 4.279582 2.286681 1.495380 -6.810463 0.205587 24.413899 2.576267 8.581574 -17.363037 0.000000 -0.000000 0.000000 -2.788360 -4.463967 1.639690 2.103957 -6.158473 20.180598 0.102757 -9.933507 -12.184146 0.000000 -0.000000 0.000000 2.626130 1.101278 8.556328 0.505470 -2.197635 13.565219 -2.376182 -0.090783 1.053321 -0.038564 1.804757 22.775670 -4.147903 4.638621 25.122190 -34.971092 -3.648799 10.673236 -55.032685 -4.528933 7.552995 16.430647 -30.875468 0.632576 6.347797 -2.559474 -1.031334 31.547463 11.255528 12.831205 52.340618 12.197207 10.116797 -16.169383 28.365854 -6.324949 -0.463449 7.109231 -4.165824 
-0.449707 3.042970 0.985924 2.761280 -0.122409 79.629744 4.039202 2.918525 2.642300 -6.555923 0.720082 21.783793 3.053144 8.931039 -17.184385 0.000000 -0.000000 0.000000 -2.664844 -4.048164 1.100406 1.783576 -5.966615 20.389656 0.200208 -10.000415 -12.138413 0.000000 -0.000000 0.000000 2.444390 0.756569 7.784035 0.486603 -2.301696 13.464137 -2.361773 -0.198176 1.134687 0.229352 2.305026 22.403187 -4.096979 5.165003 24.302738 -34.543645 -3.808046 10.776199 -55.506824 -4.484778 7.510743 16.473659 -30.559706 0.293266 6.673713 -2.473759 -1.102143 31.222008 10.980592 12.745559 53.193218 11.929006 10.748593 -16.723339 30.200157 -6.720363 -0.919113 7.302424 -4.555398 
-0.446965 3.041808 0.985829 2.509068 -0.029182 79.755332 3.941931 3.246981 3.222734 -6.512929 0.630094 20.628679 3.268627 9.054531 -17.202326 0.000000 -0.000000 0.000000 -2.674903 -3.919782 0.909163 1.677516 -5.861407 20.500492 0.325387 -9.941789 -12.133562 0.000000 -0.000000 0.000000 2.411833 0.552189 7.521259 0.445491 -2.353693 13.378445 -2.359275 -0.296015 1.136044 0.244239 2.516994 22.002679 -4.065806 5.479971 23.841358 -34.433577 -3.801194 10.652436 -55.456193 -4.566066 7.381165 16.349114 -30.581972 0.253296 6.610824 -2.543008 -0.967822 31.039309 10.794363 12.583743 53.620020 11.622513 11.052549 -16.832680 31.195099 -6.643535 -0.764721 7.408786 -4.621655 
-0.442966 3.040271 0.985715 2.153674 0.075978 79.832374 3.824273 3.562385 4.017675 -6.534457 0.306860 19.264498 3.478977 9.182494 -17.226224 0.000000 -0.000000 0.000000 -2.761983 -3.778354 0.800890 1.567970 -5.696115 20.598115 0.532876 -9.859666 -12.132406 0.000000 -0.000000 0.000000 2.363716 0.337614 7.248781 0.399327 -2.413498 13.314301 -2.367273 -0.390672 1.107018 0.310359 2.786187 21.439858 -3.994766 5.750764 23.412398 -34.405817 -3.902012 10.472715 -55.156131 -4.777476 7.260146 16.294786 -30.774760 0.031499 6.560642 -2.712898 -0.685917 30.975019 10.628763 12.429642 53.936594 11.166511 11.357126 -16.919396 32.096086 -6.536421 -0.472337 7.557679 -4.568030 
-0.438772 3.038779 0.985567 1.783581 0.165378 79.940605 3.670717 3.783269 4.765184 -6.536847 0.092619 17.904465 3.669951 9.336887 -17.208312 0.000000 -0.000000 0.000000 -2.817996 -3.548598 0.660163 1.405542 -5.506004 20.694335 0.762152 -9.881534 -12.138586 0.000000 -0.000000 0.000000 2.254350 0.167358 6.949923 0.391069 -2.420055 13.171018 -2.366959 -0.445282 1.073580 0.495941 3.021218 21.052973 -3.884670 5.913202 23.172699 -34.312243 -3.991431 10.215118 -54.863905 -5.171047 7.283044 16.318784 -30.987307 -0.208495 6.758332 -2.899510 -0.430190 31.004785 10.461883 12.240266 54.196426 10.793253 11.674111 -16.951704 32.151496 -6.515511 -0.409802 7.638295 -4.449033 
-0.434571 3.037467 0.985333 1.389936 0.271545 80.123722 3.444384 3.985718 5.446111 -6.416118 0.047144 16.432568 3.938106 9.572198 -17.175579 0.000000 -0.000000 0.000000 -2.801177 -3.326875 0.334742 1.160476 -5.314053 20.925480 1.013489 -9.888867 -12.170033 0.000000 -0.000000 0.000000 2.111089 0.011748 6.614440 0.414813 -2.384983 12.932653 -2.343274 -0.492447 1.032050 0.732301 3.270256 20.836331 -3.777596 6.052860 22.985935 -34.052256 -3.998314 9.871221 -54.748912 -5.750648 7.413986 16.441422 -31.254776 -0.375421 6.978646 -3.064665 -0.357034 30.979901 10.272475 11.905139 54.612560 10.541887 12.024319 -16.969236 31.383019 -6.529092 -0.333291 7.525325 -4.256960 
